# xmcd
#
# Track frame offsets: 
#        150
#        10712
#        27017
#        50957
#        63446
#        78384
#        99261
#        111641
#        133983
#        150607
#        172762
#        175449
#        209672
#        227163
#        243586
#
# Disc length: 3497 seconds
#
# Revision: 0
# Processed by: cddbd v1.5.2PL0 Copyright (c) Steve Scherf et al.
# Submitted via: ExactAudioCopy v0.95a5
#
DISCID=ce0da70f
DTITLE=STEVIE RAY VAUGHAN and DOUBLE TROUBLE - Texas Flood [EPIC APPR 38
DTITLE=734]
DYEAR=1983
DGENRE=Blues Rock
TTITLE0=Love Struck Baby
TTITLE1=Pride and Joy
TTITLE2=Texas Flood
TTITLE3=Tell Me
TTITLE4=Testify
TTITLE5=Rude Mood
TTITLE6=Mary Had a Little Lamb
TTITLE7=Dirty Pool
TTITLE8=I'm Cryin
TTITLE9=Lenny
TTITLE10=SRV Speaks
TTITLE11=Tin Pan Alley (AKA Roughest Place in Town)
TTITLE12=Testify (live)
TTITLE13=Mary Had a Little Lamb (live)
TTITLE14=Wham (live)
EXTD=
EXTT0=
EXTT1=
EXTT2=
EXTT3=
EXTT4=
EXTT5=
EXTT6=
EXTT7=
EXTT8=
EXTT9=
EXTT10=
EXTT11=
EXTT12=
EXTT13=
EXTT14=
PLAYORDER=
